<svg xmlns="http://www.w3.org/2000/svg" width="692.311" height="143.238" viewBox="0 0 692.311 143.238"><g transform="translate(-74.789 -74.743)"><path d="M305.179,141.277,271,93.136h-6.362l16.631,45.4H255.794v12.909l34.182,48.139h6.36l-16.628-45.4h25.469V141.277Zm21.509,63.616q0,13.091-13.054,13.088H247.066q-12.777,0-12.776-13.088V87.923q0-13.181,12.776-13.18h66.568q13.051,0,13.054,13.18Z" fill="#e40523"/><path d="M745.53,187.41q0,12.176-13.125,12.173H716.983V93.138h15.973q12.574,0,12.574,11.991ZM759.574,82.02q-7.527-7.279-20.285-7.276H695.5V217.98h43.785q12.756,0,20.285-7.184t7.526-19.817V101.927q0-12.634-7.526-19.907M598.39,151.715q6.15-2.65,6.151-11.715V87.924q0-13.181-12.943-13.18h-57V217.98h21.479V93.138h27.076v45.4H562.04v12.9l23.684,66.539h22.4l-23.685-64.892q10.647,0,13.952-1.373m-123.828,2.2a53.851,53.851,0,0,0-.551,6.5,37.859,37.859,0,0,0-.549-6.5L450.88,74.744H430.6V217.98h20.654V147.323a134.27,134.27,0,0,0-1.285-15.558l18.632,73.13h10.923l18.543-73.13a129.5,129.5,0,0,0-1.285,15.558V217.98h20.654V74.744H497.145Zm-66.823-2.2q6.15-2.65,6.15-11.715V87.924q0-13.181-12.943-13.18h-57V217.98h21.479V93.138H392.5v45.4H371.388v12.9l23.684,66.539h22.395l-23.68-64.892q10.647,0,13.952-1.373m-253-58.027h23.68V217.98h21.388V93.688h23.682V74.744h-68.75ZM130.967,74.744H87.732q-12.943,0-12.943,13.18v31.851a15.153,15.153,0,0,0,4.681,11.44l43.051,40.637v28.1H96.269v-29.2H74.79v34.14q0,13.088,12.943,13.086h43.234q13.035,0,13.034-13.086v-34.14a15.193,15.193,0,0,0-4.681-11.624L96.269,118.674v-25.9h26.252v27H144V87.74q0-13-13.033-13m511.757,82.371H668.35v-12.89L650.363,93.687h29.906V74.744H621.246l0,.007L644.5,138.538H621.246v79.443h59.572V199.034H642.725V157.115Z"/></g></svg>